<svg width="300" height="164" viewBox="0 0 300 164" fill="none" xmlns="http://www.w3.org/2000/svg">
<path d="M127.495 90.9393C128.549 86.2836 131.125 81.5401 131.682 80.6032C131.887 80.2518 132.033 79.6955 131.506 79.5783C130.95 79.4612 130.54 79.6369 129.983 79.7247C129.837 79.227 129.398 78.4657 128.315 78.2314C128.08 78.1729 127.846 78.1729 127.583 78.1729C126.792 78.1729 125.855 78.4657 124.801 79.0513C120.175 81.5401 116.28 86.8692 115.519 90.3244C115.226 91.6713 115.226 93.0768 115.753 93.8673C116.017 94.248 116.397 94.5701 116.837 94.7458C117.012 94.8336 117.217 94.8922 117.451 94.9507C117.627 94.98 117.774 95.0093 117.949 95.0093C118.652 95.0386 119.355 94.8629 120.057 94.4822C121.17 93.8673 122.956 92.2276 124.245 90.7636C124.069 91.8762 123.981 93.1646 124.362 94.0723C124.479 94.3358 124.742 94.8336 125.269 95.0971C125.357 95.1264 125.445 95.1557 125.562 95.185C125.621 95.185 125.65 95.2143 125.709 95.2143H125.796H125.884C126.206 95.2143 126.646 95.0679 126.763 94.4822C126.88 93.6331 127.085 92.6961 127.495 90.9393ZM126.118 84.4975C125.65 85.493 124.801 87.6598 124.801 87.7184C122.751 90.0901 120.028 92.579 119.501 92.4911C118.506 92.2862 119.179 90.8514 119.589 89.7388C120.848 86.3422 125.767 80.0175 127.7 80.4275C127.875 80.4568 128.08 80.6617 128.256 80.8374C127.67 81.5694 126.938 82.8285 126.118 84.4975Z" fill="#191919"/>
<path d="M139.147 94.9508C139.177 94.863 139.177 94.7459 139.206 94.5995C139.44 93.194 140.201 89.0947 141.841 84.9075C141.988 84.7611 144.096 82.5651 144.506 80.7497C144.769 79.637 144.037 79.0807 143.452 78.8171C143.305 78.7586 143.129 78.7 142.954 78.6707C142.778 78.6415 142.602 78.6122 142.456 78.6122H142.339H142.31C141.841 78.6122 141.519 78.7586 141.343 78.8757C140.846 79.2564 140.172 79.8713 139.147 82.0966C138.562 83.3264 138.386 83.8534 138.298 84.2341L137.947 85.3175C137.303 85.6981 135.839 86.4887 134.872 86.6644L135.517 85.0539C136.249 83.1507 136.951 81.3353 137.039 81.0718C137.156 80.7497 137.273 80.3105 137.156 79.9591C137.068 79.6956 136.893 79.4906 136.6 79.3735H136.571C136.512 79.3442 136.454 79.3149 136.336 79.3149L136.161 79.2856H136.073C134.726 79.2856 134.053 79.7834 133.877 80.2226L133.848 80.3105C133.438 81.2767 133.057 82.243 132.647 83.2385L132.471 83.707C132.032 84.7904 131.505 86.0788 131.007 87.25L130.246 87.1329C130.246 87.1329 129.631 87.2793 129.485 87.8063C129.309 88.3627 129.309 88.919 130.451 89.1825C129.426 92.1399 128.958 93.6625 128.87 93.9846C128.841 94.131 128.782 94.2774 128.753 94.4238C128.548 95.0972 128.431 95.4779 129.016 95.7414C129.104 95.7707 129.163 95.8 129.251 95.8293C129.397 95.8585 129.573 95.8585 129.748 95.8585C130.861 95.8 131.856 94.9216 132.296 93.7211C132.94 91.8178 133.701 89.7682 133.877 89.3289C134.609 89.1825 136.395 88.5969 137.361 88.0113C137.098 89.1825 136.161 93.3404 136.805 94.9801C136.893 95.2144 137.215 95.6536 137.713 95.8585C137.8 95.8878 137.888 95.9171 138.005 95.9464C138.327 96.005 138.65 95.9757 138.855 95.8C139.03 95.6829 139.118 95.5072 139.147 95.2144V94.9508Z" fill="#191919"/>
<path d="M156.336 78.5248C156.277 78.4955 156.16 78.4369 156.014 78.4077C155.955 78.3784 155.897 78.3784 155.838 78.3784C155.721 78.3491 155.574 78.3491 155.457 78.3198H155.428C154.491 78.3198 153.73 78.964 152.705 80.6916C152.002 81.9506 151.768 82.7412 150.948 84.8787L150.275 86.782C149.25 87.9532 146.263 92.9016 144.77 92.6088C144.419 92.5503 145.648 89.3294 147.669 85.4643C149.221 82.507 150.919 80.3988 150.948 80.3695L150.977 80.3402C151.329 79.8717 151.622 79.4618 151.534 79.0811C151.475 78.759 151.182 78.5834 151.007 78.5248H150.977C150.948 78.4955 150.89 78.4955 150.831 78.4662H150.802H150.772C150.714 78.4369 150.655 78.4369 150.597 78.4077C150.363 78.3491 150.128 78.3491 149.894 78.3491C148.547 78.3491 147.347 79.1982 146.293 80.838C144.506 83.6782 142.955 87.1333 142.193 90.12C141.373 93.2237 142.076 94.6585 143.687 94.9806C143.862 95.0099 144.009 95.0391 144.184 95.0391C144.887 95.0391 145.619 94.7463 146.468 94.1022C147.493 93.3409 149.074 91.4376 149.543 90.4713C149.338 91.6426 149.396 93.7215 149.894 94.6878V94.7171V94.7463C150.333 95.3905 150.597 95.6248 150.86 95.7419C150.948 95.7712 151.007 95.8004 151.095 95.8297C151.153 95.8297 151.212 95.859 151.241 95.859H151.3H151.358C151.505 95.859 151.709 95.8004 151.885 95.6248C152.002 95.4784 152.149 95.1855 152.149 94.2486C152.383 91.1741 153.671 86.9577 154.579 84.703C155.106 83.9417 156.541 82.3899 157.009 81.0137C157.243 80.2816 157.361 79.8131 157.214 79.3739C157.126 79.0518 156.804 78.759 156.336 78.5248Z" fill="#191919"/>
<path d="M187.666 79.0806C187.578 79.0513 187.461 78.9927 187.344 78.9635C187.285 78.9342 187.227 78.9342 187.168 78.9049C187.051 78.8756 186.904 78.8756 186.787 78.8756H186.758C185.762 78.8756 184.943 79.5198 183.684 81.2181C182.864 82.4479 182.512 83.2384 181.458 85.3467L180.697 86.84C179.526 87.9819 175.807 93.2525 174.285 92.9304C173.933 92.8425 175.514 89.7095 178.003 85.903C179.906 82.9749 181.868 80.9253 181.897 80.896L181.927 80.8667C182.337 80.3982 182.688 80.0176 182.629 79.6369C182.6 79.3148 182.307 79.1391 182.132 79.0806H182.102C182.044 79.0513 182.015 79.0513 181.956 79.022H181.927H181.897C181.839 78.9927 181.78 78.9927 181.722 78.9927C181.488 78.9342 181.224 78.9049 180.99 78.9049C179.584 78.9049 178.237 79.7248 176.978 81.3352C174.841 84.1169 172.908 87.5134 171.796 90.4708C170.654 93.5453 171.239 94.9507 172.908 95.3021C173.084 95.3314 173.23 95.3607 173.406 95.3607C174.138 95.3607 174.929 95.0972 175.895 94.453C177.066 93.721 178.852 91.847 179.467 90.91C179.145 92.052 178.999 92.9304 178.882 93.7502C178.794 94.4237 179.292 94.8922 179.526 95.0093C179.614 95.0386 179.672 95.0679 179.789 95.0972C179.848 95.0972 179.906 95.1264 179.965 95.1264H180.024H180.082C180.228 95.1264 180.463 95.0679 180.638 94.8922C180.785 94.7458 181.019 94.1016 181.488 93.1061C182.776 90.2073 184.094 87.2792 185.47 84.761C186.114 84.029 187.519 82.7114 188.193 81.5987C188.603 80.9253 188.661 80.3982 188.573 79.9883C188.456 79.5783 188.163 79.2855 187.666 79.0806Z" fill="#191919"/>
<path d="M213.989 83.5613C213.93 82.3022 213.403 81.4238 212.466 81.0138C212.29 80.926 212.115 80.8967 211.939 80.8382C211.324 80.6918 210.328 80.7503 209.362 81.1895C208.864 81.4531 209.011 81.658 209.304 81.658C209.977 81.6873 210.592 82.2436 210.797 82.6243C211.265 83.5905 210.533 85.8159 209.743 87.5142C208.132 90.9693 205.087 94.3073 203.623 94.0145C202.393 93.751 203.067 89.0953 204.238 86.5772C204.794 85.3474 205.468 84.1469 206.376 83.0342C206.727 82.595 207.108 82.1558 207.576 81.7459C209.245 80.3989 210.651 80.194 210.797 80.1061C210.885 80.0769 210.914 80.0183 210.943 79.989C210.973 79.8426 210.768 79.7255 210.533 79.6669C210.446 79.6376 210.328 79.6084 210.241 79.5791C208.806 79.2863 205.409 80.194 203.038 82.8585C202.189 83.7955 201.427 84.7911 200.929 85.8744C200.9 85.9623 200.842 86.0501 200.812 86.138C199.846 88.4512 198.587 93.9852 203.096 95.1857C204.209 95.4785 206.083 94.9808 207.488 94.2195C210.797 92.4333 214.223 88.0412 213.989 83.5613Z" fill="#191919"/>
<path d="M172.557 75.5669C173.64 75.362 174.606 75.4498 175.28 75.6548C175.543 75.7426 175.924 75.8012 175.953 75.4498C175.924 74.8056 175.455 74.2493 173.962 73.9272C172.205 73.5466 169.629 74.015 167.023 75.2448C163.07 77.0602 159.761 80.2518 157.301 85.376C155.545 89.0654 155.515 91.2321 155.691 92.989C155.955 95.5364 157.477 96.8248 159.175 97.1761C160.464 97.4397 161.254 97.2933 161.781 97.0297C162.103 96.8833 162.045 96.5027 161.869 96.5027C161.313 96.4734 160.932 96.3563 160.61 96.2391C159.088 95.6828 157.975 92.9597 159.79 87.4549C160.962 83.8827 163.538 80.7496 166.847 78.3486C167.696 77.7337 168.574 77.1774 169.511 76.6796C170.448 76.1233 171.473 75.8305 172.557 75.5669Z" fill="#191919"/>
<path d="M198.441 90.178C198.499 89.446 198.617 88.714 198.792 88.0112C199.144 86.4886 199.641 85.1417 200.051 84.0583V84.029C200.783 82.0965 200.783 82.0087 200.198 81.6573H200.168C200.022 81.5695 199.876 81.4816 199.7 81.3938C199.583 81.3352 199.466 81.3059 199.349 81.2766C198.558 81.1302 197.943 81.5402 197.475 81.9208H197.445C196.274 83.0042 194.81 83.9705 191.882 90.9393C192.995 86.4301 194.195 83.8241 194.4 83.0335C194.547 82.4772 194.693 81.9501 194.839 81.4816L194.576 82.4479C195.22 80.2225 195.425 79.432 195.074 79.022H195.044C194.956 78.9342 194.869 78.8756 194.722 78.8171C194.634 78.7878 194.547 78.7585 194.459 78.7292C193.346 78.5243 191.472 79.5491 190.711 81.2181C189.569 83.5605 184.269 91.9056 184.269 91.9056C183.684 92.8425 180.463 98.0252 177.945 99.0793C177.271 99.4893 176.481 99.8114 175.69 100.075C175.924 100.221 176.217 100.338 176.539 100.397C178.882 100.865 180.902 99.665 183.361 97.1175C185.85 94.5408 187.285 92.1984 191.091 85.171C190.623 86.8986 189.95 88.5968 189.452 90.6758C189.1 92.1984 189.452 93.5453 189.686 94.0723C189.774 94.2187 189.862 94.4823 190.213 94.5994C190.272 94.6287 190.359 94.658 190.418 94.658C190.564 94.6872 190.711 94.6872 190.857 94.658C192.175 94.453 192.263 93.5453 193.668 90.7636C193.668 90.7636 194.547 88.0405 195.923 86.3715C195.864 86.635 195.191 88.6847 194.869 90.178C193.961 94.453 196.596 96.327 199.144 96.9419C200.842 97.2054 201.603 97.0297 201.72 96.7954C201.779 96.5026 201.018 96.327 200.432 96.0341C199.436 95.6242 198.09 94.3066 198.441 90.178Z" fill="#191919"/>
<path d="M173.669 79.4909C173.523 79.4323 173.347 79.3738 173.201 79.3445C172.586 79.2274 171.971 79.3152 171.561 79.3738C171.034 79.4616 170.478 79.6666 169.892 79.9301C167.228 81.1892 163.831 84.2636 162.338 89.1828C161.43 92.1402 162.103 94.8926 163.89 95.7124C163.948 95.7417 164.007 95.771 164.036 95.771C164.241 95.8588 164.475 95.9174 164.68 95.9759C166.086 96.2688 167.52 95.8588 168.779 94.7754C169.394 94.2484 169.482 93.8384 169.511 93.6628C169.511 93.3407 169.277 93.165 169.131 93.1064L168.779 92.96C168.779 92.96 167.286 94.3069 166.32 94.0727C164.885 93.7799 165.939 89.0071 167.023 86.9282C167.96 85.1421 169.189 83.3559 171.151 82.009C171.707 81.6284 172.117 81.3941 172.615 81.5113C172.791 81.5405 172.937 81.8041 172.762 82.2433C172.644 82.5654 172.498 83.1803 173.201 83.2095C173.816 83.2388 174.079 82.6532 174.255 82.3604C174.636 81.6577 174.928 80.6914 174.313 79.9594C174.108 79.7251 173.904 79.5787 173.669 79.4909Z" fill="#191919"/>
<path d="M120.145 74.3374C120.116 72.4342 119.735 70.7066 119.003 69.2133C118.095 67.31 116.631 65.7874 114.64 64.6748H114.611C114.523 64.6162 112.093 63.5035 108.345 63.5035C105.885 63.5035 103.396 63.972 101.025 64.9383C98.0088 66.1095 95.11 68.0713 92.4162 70.7066C92.3576 70.7652 88.9025 74.6302 86.9115 78.5539C86.8822 78.6124 86.6479 79.1395 86.8822 79.5494C86.97 79.7251 87.1164 79.8129 87.3214 79.8715C87.3799 79.9008 87.4971 79.93 87.6727 79.93C87.9656 79.93 88.4048 79.8129 88.9318 79.2859C88.9318 79.2859 88.9318 79.2859 88.9611 79.2566C88.9904 79.2273 91.0107 76.7092 94.0852 74.2203C95.9006 72.7563 97.6867 71.6143 99.4728 70.7945C101.669 69.7696 103.777 69.2426 105.768 69.2426C106.676 69.2426 107.583 69.3597 108.462 69.5647C108.491 69.5647 109.135 69.7696 109.926 70.2381C110.658 70.6773 111.683 71.4972 112.415 72.7855C113 73.8397 113.293 75.0694 113.293 76.4164C113.293 78.0854 112.883 79.9593 112.034 82.009C112.034 82.0383 111.361 83.7951 109.809 86.1083C108.901 87.4552 107.847 88.7436 106.734 89.9148C105.329 91.3788 103.748 92.6672 102.079 93.7213C102.079 93.7213 100.849 94.5411 99.18 95.3317C96.9839 96.3566 95.0514 96.9129 93.5581 96.9129C92.7675 96.9129 92.0648 96.7665 91.5085 96.4444C90.8936 96.093 90.4251 95.566 90.103 94.834C90.0737 94.7461 89.9859 94.3362 89.9859 93.692C89.9859 93.0185 90.0737 91.9644 90.513 90.6761C91.0107 89.2413 91.8306 87.8359 92.9725 86.5182C94.4073 84.8492 96.3398 83.2973 98.7115 81.8626C98.7993 81.804 100.966 80.4571 101.2 79.0809C101.23 78.9931 101.376 78.6417 101.435 78.2025C101.552 77.4997 101.493 76.9727 101.2 76.592C101.025 76.3578 100.673 76.0943 99.9998 76.0943C99.0921 76.0943 97.7745 76.592 96.0177 77.5876C95.7834 77.6754 93.5288 78.7588 91.2157 80.9842C89.8102 82.3311 88.6683 83.8537 87.8191 85.4641C86.6772 87.6309 86.0916 89.8269 86.0038 92.1401C86.0038 92.228 85.9159 93.6627 86.5894 95.2439C86.9993 96.1809 87.5849 97.0007 88.3462 97.6156C89.2832 98.4062 90.4837 98.9333 91.9184 99.1968C92.0648 99.2261 92.9725 99.4603 94.4658 99.4603C96.369 99.4603 98.3894 99.1089 100.41 98.4062C103.221 97.4399 106.002 95.8588 108.696 93.692C108.872 93.5749 110.482 92.4622 112.561 90.2954C113.82 88.9778 114.962 87.5723 115.958 86.079C117.217 84.2343 118.271 82.2725 119.12 80.2229C119.179 80.135 120.174 77.5583 120.145 74.3374Z" fill="#191919"/>
</svg>
