<svg width="94" height="28" viewBox="0 0 94 28" fill="none" xmlns="http://www.w3.org/2000/svg">
<path d="M10.73 0.229575L3.45892 3.13801C1.36985 3.97364 0 5.99695 0 8.24695V15.1027C0 17.3527 1.36985 19.376 3.45892 20.2117L10.73 23.1201C11.4953 23.4262 12.3489 23.4262 13.1142 23.1201L20.3853 20.2117C22.4743 19.376 23.8442 17.3527 23.8442 15.1027V8.24695C23.8442 5.99695 22.4743 3.97364 20.3853 3.13801L13.1142 0.229575C12.3489 -0.0765248 11.4953 -0.0765252 10.73 0.229575Z" fill="#3300FF"/>
<path d="M36.6914 2.50403L44.0459 11.7332L51.404 2.50403H52.3269V20.8543H50.1638V8.9104C50.1638 8.64722 50.1891 8.18936 50.2431 7.54044C49.3995 8.62919 48.3829 9.86576 47.1968 11.2429C46.0107 12.6237 44.9508 13.8062 44.0206 14.7904L42.9643 13.6043C40.8373 11.178 39.5358 9.69272 39.0635 9.14834C38.9049 8.95366 38.7499 8.75177 38.6021 8.54267C38.4543 8.32997 38.3065 8.13889 38.1659 7.96224L37.8486 7.5152C37.9027 8.00911 37.9279 8.47417 37.9279 8.914V20.8579H35.7684V2.50403H36.6914Z" fill="#262626"/>
<path d="M63.6416 19.4844C63.2378 19.9927 62.6971 20.3893 62.0193 20.6705C61.3415 20.9517 60.5808 21.0923 59.7372 21.0923C58.2952 21.0923 57.1415 20.6957 56.2691 19.9062C55.4002 19.1166 54.964 18.0711 54.964 16.7697C54.964 15.3997 55.4831 14.3326 56.5178 13.5647C57.5561 12.8004 59.0054 12.4182 60.8692 12.4182H63.1621V11.863C63.1621 10.8608 62.9819 10.1542 62.6213 9.7396C62.2608 9.32501 61.6516 9.11952 60.7899 9.11952C60.0509 9.11952 59.3262 9.25291 58.616 9.51608C57.9058 9.77926 57.2497 10.1578 56.6512 10.6517L55.5949 9.04381C56.2258 8.46338 57.0081 8.00552 57.9419 7.67385C58.872 7.33857 59.831 7.17273 60.8152 7.17273C62.2753 7.17273 63.3892 7.55127 64.1644 8.30836C64.9395 9.06544 65.3252 10.1542 65.3252 11.5782V16.8237C65.3252 18.2117 65.7038 19.2248 66.4572 19.8557L65.0584 21.1752C64.3915 20.7173 63.9156 20.1549 63.6344 19.488L63.6416 19.4844ZM62.232 18.2586C62.8557 17.671 63.1693 16.9103 63.1693 15.9765V14.3686H60.8765C59.557 14.3686 58.6052 14.5561 58.0176 14.9346C57.4299 15.3132 57.1343 15.9152 57.1343 16.7408C57.1343 17.4979 57.3686 18.0856 57.8337 18.5074C58.2988 18.9292 58.9441 19.1419 59.7733 19.1419C60.7935 19.1419 61.6155 18.8462 62.2392 18.2586H62.232Z" fill="#262626"/>
<path d="M68.5714 22.5672C68.5714 22.0914 68.6003 21.6191 68.6652 21.1432C68.7265 20.6673 68.7661 20.3609 68.7841 20.2203C68.4489 19.9211 68.1749 19.5497 67.955 19.0991C67.735 18.652 67.6269 18.1906 67.6269 17.7147C67.6269 17.1343 67.7927 16.5502 68.128 15.9626C68.4633 15.375 68.9284 14.964 69.5268 14.7368C69.772 14.6323 70.1325 14.5782 70.6084 14.5782C70.1325 13.8752 69.8981 13.0316 69.8981 12.0474C69.8981 11.0632 70.1325 10.1979 70.5975 9.45168C71.0626 8.70541 71.6863 8.12858 72.4686 7.72481C73.2509 7.32103 74.0982 7.11914 75.0139 7.11914C75.6808 7.11914 76.2973 7.23451 76.8597 7.46163H81.3409V9.49133L79.441 9.38679C79.9313 10.1619 80.1801 11.0307 80.1801 11.9969C80.1801 12.9631 79.9529 13.8103 79.4951 14.5422C79.0372 15.2704 78.4171 15.8292 77.6348 16.215C76.8525 16.6007 75.9764 16.7954 75.0103 16.7954C74.0441 16.7954 73.2077 16.6187 72.4542 16.269C72.1009 16.233 71.7945 16.215 71.5313 16.215C71.214 16.215 70.9617 16.2402 70.767 16.2943C70.5218 16.3664 70.2875 16.5142 70.0676 16.7413C69.8477 16.9684 69.7395 17.2677 69.7395 17.639C69.7395 18.0788 69.9126 18.3817 70.2551 18.5475C70.5975 18.7133 71.0951 18.7963 71.744 18.7963L73.5358 18.7422L75.6448 18.6881C77.4546 18.6881 78.9038 19.0522 79.9962 19.7841C81.085 20.5123 81.6293 21.6155 81.6293 23.0936C81.6293 24.7448 80.9624 25.9489 79.6249 26.706C78.2874 27.4631 76.6722 27.8416 74.7723 27.8416C70.6408 27.8416 68.575 26.0823 68.575 22.5672H68.5714ZM78.208 25.2315C79.0769 24.7736 79.5131 24.0706 79.5131 23.1224C79.5131 22.1022 79.0697 21.4352 78.1828 21.118C77.2959 20.8007 76.2432 20.6421 75.0319 20.6421C74.5921 20.6421 74.2676 20.6493 74.0549 20.6673C73.8602 20.6673 73.5898 20.6709 73.2365 20.6817C72.8832 20.6926 72.3677 20.6962 71.6827 20.6962L71.077 20.6709C71.077 20.6709 70.9112 20.6529 70.5218 20.6169L70.6552 22.5168C70.7093 23.2739 70.8139 23.8687 70.9725 24.3085C71.1311 24.7484 71.5024 25.1269 72.0937 25.4406C72.6813 25.7578 73.5826 25.9164 74.7976 25.9164C76.2036 25.9164 77.3428 25.6893 78.2116 25.2315H78.208ZM77.2707 14.041C77.7971 13.5039 78.0602 12.8333 78.0602 12.0258C78.0602 11.1641 77.7718 10.4575 77.1914 9.90232C76.611 9.34713 75.8719 9.07314 74.9778 9.07314C74.0837 9.07314 73.3375 9.35073 72.8039 9.90232C72.2667 10.4575 72 11.1641 72 12.0258C72 12.8874 72.2848 13.594 72.858 14.0951C73.4276 14.5962 74.1631 14.845 75.0607 14.845C76.0089 14.845 76.748 14.5782 77.2743 14.041H77.2707Z" fill="#262626"/>
<path d="M85.5711 17.9018C86.1083 18.7454 87.0961 19.1672 88.5382 19.1672C89.2953 19.1672 89.9983 19.0482 90.6472 18.8103C91.2961 18.5723 91.9811 18.2082 92.7021 17.7179L93.7044 19.351C93.0554 19.8774 92.2551 20.3064 91.3069 20.6309C90.3588 20.9553 89.3998 21.1176 88.4336 21.1176C87.2043 21.1176 86.1407 20.8328 85.2431 20.2595C84.3454 19.6899 83.6604 18.9076 83.1881 17.9126C82.7122 16.9212 82.4779 15.7892 82.4779 14.5237C82.4779 13.2583 82.7122 12.0614 83.1773 10.9366C83.6424 9.8118 84.3274 8.90691 85.2322 8.22193C86.1371 7.53695 87.2151 7.19446 88.4625 7.19446C89.4827 7.19446 90.4129 7.43961 91.2565 7.93352C92.1001 8.42742 92.767 9.10519 93.2609 9.97764C93.7512 10.8465 94 11.8091 94 12.8654C94 13.3052 93.9639 14.0154 93.8955 14.9996H84.6951C84.7492 16.0884 85.0412 17.0546 85.5783 17.8982L85.5711 17.9018ZM91.8585 13.0492V12.7861C91.8585 12.1011 91.7035 11.481 91.3971 10.9258C91.0906 10.3706 90.676 9.93798 90.1569 9.62073C89.6378 9.30347 89.0609 9.14485 88.43 9.14485C87.5323 9.14485 86.7572 9.48013 86.0975 10.1471C85.4377 10.814 85.0015 11.7802 84.7924 13.0456H91.8585V13.0492Z" fill="#262626"/>
<path fill-rule="evenodd" clip-rule="evenodd" d="M12.3928 14.0506C13.0637 13.3536 13.7259 12.6283 14.3653 11.8858V15.6958C14.3653 16.0757 14.6733 16.3836 15.0531 16.3836H16.5072C16.8871 16.3836 17.195 16.0757 17.195 15.6958V8.00573C17.195 7.37262 16.6818 6.85938 16.0487 6.85938H15.357C15.0425 6.85938 14.7418 6.98859 14.5253 7.21675L11.9204 9.96253L9.31852 7.21717C9.10204 6.98875 8.80118 6.85938 8.48648 6.85938H7.79491C7.1618 6.85938 6.64856 7.37262 6.64856 8.00573V15.699C6.64856 16.0789 6.9565 16.3869 7.33637 16.3869H8.78719C9.16706 16.3869 9.475 16.0789 9.475 15.699V11.9142C9.93216 12.4435 10.4015 12.9563 10.8615 13.4589C11.0387 13.6526 11.2146 13.8447 11.3878 14.0357C11.5158 14.1768 11.6966 14.2585 11.8871 14.2613C12.0776 14.2641 12.2607 14.1878 12.3928 14.0506Z" fill="white"/>
</svg>
